<?xml version="1.0" encoding="UTF-8"?>
<svg version="1.1" xmlns="http://www.w3.org/2000/svg" width="40" height="40">
<path d="M0 0 C4.04725524 1.79512859 7.81538015 4.00110196 11.625 6.25 C12.72803467 6.88462158 13.83106934 7.51924316 14.9675293 8.1730957 C17.23278472 9.47778772 19.49443481 10.7887594 21.75244141 12.10595703 C26.42224448 14.82948223 31.11762885 17.50751476 35.8125 20.1875 C37.09084717 20.92081543 37.09084717 20.92081543 38.39501953 21.66894531 C45.05186473 25.48264393 51.76549189 29.18526253 58.49707031 32.86499023 C64.3907535 36.09453976 70.23563653 39.40157865 76.0625 42.75 C88.63297076 49.96900136 101.31880439 56.97796095 114 64 C174.55165877 97.55165877 174.55165877 97.55165877 178 101 C178.09530981 104.04402422 178.12551639 107.06531708 178.11352539 110.10961914 C178.11367142 111.06561508 178.11381744 112.02161102 178.1139679 113.00657654 C178.11326835 116.18279245 178.10547403 119.35895052 178.09765625 122.53515625 C178.09579222 124.73091093 178.09436825 126.92666602 178.09336853 129.12242126 C178.08954219 134.91420633 178.07971091 140.7059665 178.06866455 146.4977417 C178.05845293 152.40278791 178.05387145 158.30783813 178.04882812 164.21289062 C178.03808874 175.80860648 178.02049101 187.40429728 178 199 C189.55 199 201.1 199 213 199 C213 219.46 213 239.92 213 261 C207.84749724 263.57625138 202.76410456 266.03962811 197.4765625 268.28515625 C196.43440834 268.73116684 196.43440834 268.73116684 195.37120056 269.18618774 C193.12348595 270.14736434 190.8742824 271.10499872 188.625 272.0625 C187.04802349 272.73591491 185.47112 273.40950084 183.89428711 274.08325195 C173.75559617 278.41243969 163.60554883 282.7146519 153.44897461 287.00170898 C139.2396877 293.00257245 125.06830525 299.09296483 110.90234375 305.1953125 C99.43934606 310.12823654 87.94146136 314.97611032 76.4375 319.8125 C57.40983014 327.81272008 38.41720579 335.88985777 19.49365234 344.1340332 C16.63393618 345.37918282 13.7721301 346.61942599 10.91015625 347.859375 C7.96790676 349.1356395 5.03749581 350.4314352 2.12109375 351.765625 C1.07050781 352.23484375 0.01992188 352.7040625 -1.0625 353.1875 C-2.31740234 353.76564453 -2.31740234 353.76564453 -3.59765625 354.35546875 C-8.9564816 355.79320238 -13.81240302 353.39887929 -18.671875 351.2265625 C-19.30252365 350.94730927 -19.9331723 350.66805603 -20.58293152 350.38034058 C-21.93622676 349.78035217 -23.28817801 349.17732472 -24.6388855 348.5715332 C-28.24910118 346.95286732 -31.86957553 345.35738295 -35.48828125 343.7578125 C-36.21668716 343.43504333 -36.94509308 343.11227417 -37.6955719 342.77972412 C-44.08158222 339.95297141 -50.5002478 337.20805724 -56.9375 334.5 C-57.97003906 334.06494141 -59.00257813 333.62988281 -60.06640625 333.18164062 C-62.22165164 332.27396087 -64.37709232 331.36674468 -66.53271484 330.45996094 C-73.10905296 327.69087898 -79.68014192 324.90941639 -86.25 322.125 C-86.94544922 321.8303183 -87.64089844 321.5356366 -88.35742188 321.23202515 C-98.40478463 316.97263357 -108.42914897 312.66270093 -118.4375 308.3125 C-133.6173113 301.71583884 -148.85747515 295.26721704 -164.11328125 288.84863281 C-168.94947667 286.8137954 -173.78481015 284.77691808 -178.61984253 282.73931885 C-181.45366844 281.5458351 -184.28845396 280.35465372 -187.12329102 279.16357422 C-201.15204869 273.25247248 -215.06100287 267.13315874 -229 261 C-229 240.54 -229 220.08 -229 199 C-214.48 199 -199.96 199 -185 199 C-185.10441406 191.92304688 -185.20882812 184.84609375 -185.31640625 177.5546875 C-185.36239474 173.07023821 -185.40571893 168.58607978 -185.43945312 164.1015625 C-185.49324959 156.98376058 -185.55687393 149.8670009 -185.67895508 142.75 C-185.77677128 137.01164468 -185.83056333 131.2744068 -185.85389519 125.53528214 C-185.87052076 123.34626799 -185.90298861 121.15731483 -185.95157051 118.9687767 C-186.01696242 115.90085702 -186.02590113 112.83754781 -186.02172852 109.76904297 C-186.054086 108.86489151 -186.08644348 107.96074005 -186.11978149 107.02919006 C-186.08108337 104.39785936 -185.94627453 102.45963227 -185 100 C-182.28102866 97.41061514 -179.32775432 95.7028026 -176 94 C-175.04577148 93.44425293 -174.09154297 92.88850586 -173.10839844 92.31591797 C-172.2837207 91.87908691 -171.45904297 91.44225586 -170.609375 90.9921875 C-169.66368652 90.48679443 -168.71799805 89.98140137 -167.74365234 89.46069336 C-166.75574707 88.93741455 -165.7678418 88.41413574 -164.75 87.875 C-156.89369471 83.66915407 -149.09381364 79.39080315 -141.375 74.9375 C-133.27046808 70.2661646 -125.09333621 65.74626648 -116.87182617 61.28442383 C-109.64205486 57.35884628 -102.46469683 53.34867313 -95.30322266 49.30029297 C-82.54018704 42.09487345 -69.75702927 34.92827212 -56.875 27.9375 C-49.25115911 23.79927806 -41.6738486 19.58599604 -34.125 15.3125 C-33.16577637 14.77141602 -32.20655273 14.23033203 -31.21826172 13.67285156 C-26.86844748 11.21442375 -22.53532948 8.73595105 -18.2421875 6.1796875 C-17.5188623 5.75518311 -16.79553711 5.33067871 -16.05029297 4.89331055 C-14.73709016 4.12099468 -13.43064618 3.33699668 -12.13330078 2.53833008 C-7.83882438 0.03093307 -4.91941768 -0.80637877 0 0 Z " fill="#F2F2F2" transform="translate(505,273)"/>
<path d="M0 0 C2.99363238 1.48211269 5.91048116 3.06247775 8.80078125 4.734375 C10.23693154 5.55346892 11.67313253 6.37247396 13.109375 7.19140625 C14.27895752 7.86163818 14.27895752 7.86163818 15.47216797 8.54541016 C20.09285255 11.18797904 24.72900655 13.8032371 29.36328125 16.421875 C30.34828613 16.97891113 31.33329102 17.53594727 32.34814453 18.10986328 C43.73814819 24.54687573 55.1757361 30.89495764 66.64624023 37.18725586 C74.28270709 41.37699114 81.88340766 45.61345361 89.43359375 49.95703125 C93.59506446 52.34162756 97.79215314 54.661487 101.98828125 56.984375 C107.30236761 59.9261411 112.59834046 62.89298553 117.86328125 65.921875 C123.53459952 69.17860649 129.25280808 72.34214204 134.98828125 75.484375 C141.87078976 79.25551545 148.7140609 83.08053301 155.515625 86.99609375 C158.12334298 88.49505434 160.74260943 89.97216665 163.3671875 91.44140625 C164.10485352 91.85438965 164.84251953 92.26737305 165.60253906 92.69287109 C167.042531 93.49794877 168.48326005 94.30170975 169.92480469 95.10400391 C174.87910742 97.87520117 174.87910742 97.87520117 175.98828125 98.984375 C176.08356345 101.96735714 176.113803 104.92713845 176.10180664 107.91040039 C176.10195267 108.84688919 176.10209869 109.78337799 176.10224915 110.74824524 C176.10154962 113.85953039 176.0937554 116.97075649 176.0859375 120.08203125 C176.08407346 122.23294543 176.08264949 124.38386003 176.08164978 126.53477478 C176.0778235 132.20819258 176.06799227 137.88158495 176.0569458 143.55499268 C176.04673405 149.33939266 176.04215267 155.12379673 176.03710938 160.90820312 C176.0263701 172.26693828 176.00929236 183.62565453 175.98828125 194.984375 C168.35732042 195.18834677 160.72707011 195.32778439 153.09399414 195.42382812 C150.50127901 195.46389251 147.90874272 195.51836148 145.31665039 195.58789062 C141.57523344 195.68568665 137.83621831 195.7304752 134.09375 195.765625 C132.37432442 195.82756042 132.37432442 195.82756042 130.62016296 195.89074707 C121.56370764 195.89572053 116.71649238 192.82619732 109.98828125 186.984375 C109.10967941 186.30330688 108.23107758 185.62223877 107.32585144 184.92053223 C104.28365026 182.40074488 102.29265453 179.39703294 100.17578125 176.109375 C99.74491211 175.45388672 99.31404297 174.79839844 98.87011719 174.12304688 C95.97899467 169.67221177 93.3149196 165.12270174 90.73828125 160.484375 C87.90924363 155.41280756 84.98868044 151.18479415 80.98828125 146.984375 C78.22551948 147.50705966 75.66219365 148.09307087 72.98828125 148.984375 C67.97538966 149.83401764 67.97538966 149.83401764 64.98828125 148.984375 C62.7037224 146.90478592 60.89589217 144.7153329 59.04296875 142.24609375 C57.11083391 139.79847967 57.11083391 139.79847967 54.12890625 138.7890625 C49.43573746 136.09224163 47.52508763 132.02727658 44.86328125 127.421875 C43.84907803 125.68597805 42.82597435 123.95524289 41.79296875 122.23046875 C41.1275708 121.08082642 41.1275708 121.08082642 40.44873047 119.90795898 C38.82075793 117.76372702 37.46083253 116.97981343 34.98828125 115.984375 C34.75367188 116.67917969 34.5190625 117.37398438 34.27734375 118.08984375 C32.74472827 121.53126215 30.66003713 124.34339048 28.36328125 127.296875 C27.73292969 128.12155273 27.73292969 128.12155273 27.08984375 128.96289062 C26.06108086 130.30729668 25.02538035 131.64638913 23.98828125 132.984375 C22.06640625 132.61328125 22.06640625 132.61328125 19.98828125 131.984375 C18.73828125 129.921875 18.73828125 129.921875 17.98828125 127.984375 C16.77527344 128.11328125 15.56226563 128.2421875 14.3125 128.375 C10.4852449 128.37162871 10.15716471 128.14782584 7.1953125 125.28125 C6.3705515 124.11734728 5.57269082 122.93398155 4.80078125 121.734375 C4.00083633 120.5583655 3.19491677 119.38639587 2.3828125 118.21875 C1.80200928 117.38053711 1.80200928 117.38053711 1.20947266 116.52539062 C-0.55594397 114.29761978 -2.77483512 112.71666854 -5.01171875 110.984375 C-5.01171875 110.324375 -5.01171875 109.664375 -5.01171875 108.984375 C-9.63675282 110.52605302 -10.84795778 114.82853465 -12.96289062 118.96875 C-15.52603634 123.74933776 -15.52603634 123.74933776 -18.078125 124.984375 C-20.01171875 124.984375 -20.01171875 124.984375 -23.01171875 123.984375 C-23.23730469 124.63019531 -23.46289062 125.27601563 -23.6953125 125.94140625 C-25.48130126 130.06984911 -27.73953704 133.83251443 -30.07421875 137.671875 C-30.55938965 138.47044922 -31.04456055 139.26902344 -31.54443359 140.09179688 C-35.02244759 145.68661586 -38.72416397 150.51172099 -43.33203125 155.234375 C-45.08898675 156.8916474 -45.08898675 156.8916474 -46.01171875 158.984375 C-46.67171875 158.984375 -47.33171875 158.984375 -48.01171875 158.984375 C-48.01171875 159.974375 -48.01171875 160.964375 -48.01171875 161.984375 C-50.44921875 161.171875 -50.44921875 161.171875 -53.01171875 159.984375 C-53.34171875 158.994375 -53.67171875 158.004375 -54.01171875 156.984375 C-55.66171875 157.644375 -57.31171875 158.304375 -59.01171875 158.984375 C-60.47932888 157.59829877 -61.93546064 156.20006305 -63.38671875 154.796875 C-64.19882812 154.01957031 -65.0109375 153.24226562 -65.84765625 152.44140625 C-68.00031727 149.99732 -69.01804581 148.05820943 -70.01171875 144.984375 C-72.39374874 145.06656692 -72.39374874 145.06656692 -75.01171875 145.984375 C-77.06226876 148.41965286 -77.06226876 148.41965286 -78.69921875 151.421875 C-81.91045293 156.88310918 -81.91045293 156.88310918 -84.01171875 158.984375 C-85.18734375 158.654375 -86.36296875 158.324375 -87.57421875 157.984375 C-89.75572921 157.54674766 -89.75572921 157.54674766 -92.01171875 157.984375 C-95.5839292 160.8370943 -98.22454754 164.38249221 -101.01171875 167.984375 C-102.50818517 169.82059377 -104.00816171 171.65395774 -105.51171875 173.484375 C-106.2490625 174.39574219 -106.98640625 175.30710937 -107.74609375 176.24609375 C-110.68268534 179.7953191 -113.75853117 183.20265744 -116.87109375 186.59765625 C-119.14016932 188.97798463 -119.14016932 188.97798463 -120.89038086 192.09692383 C-122.71723032 194.27474447 -123.69425292 194.91734529 -126.50765991 195.5113678 C-129.71832602 195.67989632 -132.87991112 195.65848969 -136.09375 195.5703125 C-137.13059937 195.56427002 -138.16744873 195.55822754 -139.23571777 195.55200195 C-143.09895801 195.52067266 -146.96162946 195.43690351 -150.82421875 195.359375 C-159.46609375 195.235625 -168.10796875 195.111875 -177.01171875 194.984375 C-177.01171875 162.974375 -177.01171875 130.964375 -177.01171875 97.984375 C-172.39171875 95.344375 -167.77171875 92.704375 -163.01171875 89.984375 C-159.85429041 88.11463109 -159.85429041 88.11463109 -156.703125 86.234375 C-149.29758055 81.80028602 -141.76250923 77.70354385 -134.09887695 73.73486328 C-128.80170615 70.97444932 -123.63500379 68.05438704 -118.51171875 64.984375 C-111.75312283 60.93572449 -104.8624087 57.21934228 -97.87353516 53.58496094 C-92.1810952 50.61872313 -86.59288448 47.50973421 -81.03515625 44.296875 C-67.72620725 36.61622697 -54.26863234 29.18507636 -40.76171875 21.859375 C-31.60570878 16.89255771 -22.5451527 11.7709106 -13.515625 6.578125 C-12.74750488 6.13984375 -11.97938477 5.7015625 -11.18798828 5.25 C-9.77877105 4.43045971 -8.38259059 3.58790036 -7.00341797 2.71875 C-2.5868013 -0.02009166 -2.5868013 -0.02009166 0 0 Z " fill="#2F2F2F" transform="translate(502.01171875,277.015625)"/>
<path d="M0 0 C142.56 0 285.12 0 432 0 C432 16.83 432 33.66 432 51 C289.44 51 146.88 51 0 51 C0 34.17 0 17.34 0 0 Z " fill="#303030" transform="translate(281,477)"/>
<path d="M0 0 C136.95 0 273.9 0 415 0 C411.7562693 2.16248713 408.41994278 3.59571607 404.83984375 5.08203125 C404.13533585 5.37808762 403.43082794 5.67414398 402.70497131 5.97917175 C399.70153474 7.24127057 396.69513546 8.49623593 393.6887207 9.7512207 C386.00853473 12.96161762 378.40385754 16.18355933 370.99780273 19.99633789 C368.41527171 21.29375755 365.77764332 22.32621372 363.0625 23.3125 C357.40105886 25.43470095 351.82026264 27.71143277 346.25 30.0625 C345.47019775 30.39096924 344.69039551 30.71943848 343.88696289 31.05786133 C339.24688944 33.02193175 334.63672091 35.04568593 330.03613281 37.1003418 C327.45940637 38.23885941 324.8586613 39.31193282 322.25 40.375 C317.96571751 42.14518516 313.75697119 44.02672646 309.5625 46 C304.27785023 48.46869541 298.93751035 50.62474487 293.4609375 52.62890625 C290.59041877 53.76609821 287.81383152 54.98572677 285.01171875 56.27734375 C277.61736186 59.67134101 270.07677281 62.70974843 262.5402832 65.77050781 C255.59611931 68.59446182 248.77057534 71.52235807 242.09887695 74.95019531 C239.42153855 76.28933166 236.68814581 77.35552209 233.875 78.375 C230.15574726 79.7450199 226.53463462 81.18881317 222.96484375 82.90625 C221.929646 83.39472412 221.929646 83.39472412 220.87353516 83.89306641 C219.54232767 84.52729011 218.21947213 85.17949495 216.90771484 85.85302734 C210.27692344 88.97551794 204.60926529 88.2626527 197.78979492 85.87695312 C194.21712178 84.43234057 190.70165291 82.89396373 187.1875 81.3125 C186.00607422 80.79494141 184.82464844 80.27738281 183.60742188 79.74414062 C177.78806741 77.18362466 172.00868428 74.54489103 166.24609375 71.859375 C160.85545046 69.36065329 155.41152732 67.08985279 149.875 64.9375 C144.69674374 62.89699754 139.54219933 60.86203975 134.5 58.5 C129.65778743 56.23679195 124.72001626 54.27299914 119.75 52.3125 C109.1936165 48.14303636 98.80080437 43.62349095 88.41162109 39.05615234 C85.28215194 37.68562354 82.14285697 36.33950732 79 35 C79 34.34 79 33.68 79 33 C77.14375 32.6596875 77.14375 32.6596875 75.25 32.3125 C69.17175259 30.94607229 63.67975641 28.51802534 58 26 C57.29037109 25.68691895 56.58074219 25.37383789 55.84960938 25.05126953 C52.02728732 23.36461724 48.20865978 21.6699435 44.39453125 19.96484375 C43.67330078 19.64257812 42.95207031 19.3203125 42.20898438 18.98828125 C40.70446465 18.31517163 39.20058268 17.64063513 37.69726562 16.96484375 C33.12614617 14.91772664 28.53284133 12.96938012 23.875 11.125 C23.24899902 10.87524414 22.62299805 10.62548828 21.97802734 10.36816406 C18.57075136 9.01000131 15.15646225 7.67195689 11.734375 6.3515625 C11.04617676 6.08327637 10.35797852 5.81499023 9.64892578 5.53857422 C8.32143122 5.02134775 6.99172701 4.5097496 5.65966797 4.00439453 C1.11254223 2.22508446 1.11254223 2.22508446 0 0 Z " fill="#303030" transform="translate(290,534)"/>
<path d="M0 0 C0.1875 3.3125 0.1875 3.3125 0 7 C-1.5625 8.6875 -1.5625 8.6875 -3 10 C-3.31259581 12.09061231 -3.31259581 12.09061231 -2 14 C-0.28534547 14.72543076 1.43383183 15.44309965 3.1796875 16.08984375 C5.66367192 17.33183596 6.91032456 19.31010993 8.53515625 21.50390625 C11.36805928 24.39724455 15.26099998 25.61518518 19 27 C17.125 30.875 17.125 30.875 16 32 C13.30345146 32.07319621 10.63308542 32.09242537 7.9375 32.0625 C6.79958008 32.05573242 6.79958008 32.05573242 5.63867188 32.04882812 C3.75908129 32.0370068 1.87953101 32.01907078 0 32 C0 32.66 0 33.32 0 34 C-12.18146609 35.07785444 -12.18146609 35.07785444 -16.5703125 32.4765625 C-18.625 30.5625 -18.625 30.5625 -20.3515625 28.62890625 C-22.21508111 26.78746724 -23.44635628 26.39587053 -26 26 C-24.63016497 22.83884224 -24.0109362 22.0072908 -21 20 C-18.66800612 19.92094936 -16.33167378 19.91201231 -14 20 C-13.690625 19.195625 -13.38125 18.39125 -13.0625 17.5625 C-12 15 -12 15 -11 14 C-10.979375 12.96875 -10.95875 11.9375 -10.9375 10.875 C-9.79274322 6.14333862 -5.48282768 0 0 0 Z " fill="#363636" transform="translate(510,427)"/>
<path d="M0 0 C3.96 0 7.92 0 12 0 C16 4 16 4 16.42578125 6.9453125 C16.38839844 7.99460937 16.35101563 9.04390625 16.3125 10.125 C16.28800781 11.17945313 16.26351563 12.23390625 16.23828125 13.3203125 C16 16 16 16 15 18 C14.65511861 23.63306277 15.62496822 28.58581238 17 34 C15.02 34 13.04 34 11 34 C10.01 29.71 9.02 25.42 8 21 C7.01 21 6.02 21 5 21 C5 25.29 5 29.58 5 34 C3.35 34 1.7 34 0 34 C0 22.78 0 11.56 0 0 Z " fill="#F8F8F8" transform="translate(380,484)"/>
<path d="M0 0 C1.65 0 3.3 0 5 0 C5.33 9.24 5.66 18.48 6 28 C6.99 28 7.98 28 9 28 C9.33 18.76 9.66 9.52 10 0 C11.98 0 13.96 0 16 0 C16.07431978 4.05671683 16.12868133 8.11316846 16.16479492 12.17041016 C16.17985422 13.54971218 16.20030613 14.92896653 16.22631836 16.30810547 C16.26282415 18.29373403 16.27814853 20.27971618 16.29296875 22.265625 C16.3086792 23.45961914 16.32438965 24.65361328 16.34057617 25.88378906 C15.9711396 29.26406744 15.3705204 30.61227074 13 33 C10.87890625 33.75 10.87890625 33.75 8.5625 34 C7.41974609 34.1546875 7.41974609 34.1546875 6.25390625 34.3125 C2.97948463 33.8585074 2.01399298 32.58229664 0 30 C-0.45410156 26.79199219 -0.45410156 26.79199219 -0.390625 23.046875 C-0.38496521 22.38665344 -0.37930542 21.72643188 -0.37347412 21.04620361 C-0.3511623 18.94671737 -0.30098314 16.8489663 -0.25 14.75 C-0.22992794 13.3229414 -0.21167839 11.89585592 -0.1953125 10.46875 C-0.15131693 6.97860707 -0.08232876 3.48947301 0 0 Z " fill="#F2F2F2" transform="translate(563,484)"/>
<path d="M0 0 C2 0 2 0 3.625 1.5 C4.305625 2.2425 4.305625 2.2425 5 3 C5 2.34 5 1.68 5 1 C9.53931394 -0.37554968 12.57505062 0.47138112 17 2 C17.78375 2.226875 18.5675 2.45375 19.375 2.6875 C21 4 21 4 21.75 7.625 C21.8325 8.73875 21.915 9.8525 22 11 C21.01 10.67 20.02 10.34 19 10 C19 10.66 19 11.32 19 12 C18.01 11.67 17.02 11.34 16 11 C16 10.34 16 9.68 16 9 C15.34 9 14.68 9 14 9 C13.67 9.99 13.34 10.98 13 12 C10.36 10.68 7.72 9.36 5 8 C5 8.99 5 9.98 5 11 C3.68 10.67 2.36 10.34 1 10 C0.67 10.66 0.34 11.32 0 12 C-0.66 12 -1.32 12 -2 12 C-2 11.34 -2 10.68 -2 10 C-3.65 10.66 -5.3 11.32 -7 12 C-7 11.34 -7 10.68 -7 10 C-8.65 10.66 -10.3 11.32 -12 12 C-12 11.34 -12 10.68 -12 10 C-13.175625 10.7425 -13.175625 10.7425 -14.375 11.5 C-17 13 -17 13 -19 13 C-19 12.34 -19 11.68 -19 11 C-21.31 11.66 -23.62 12.32 -26 13 C-26 11.68 -26 10.36 -26 9 C-17.57142857 5.57142857 -17.57142857 5.57142857 -13 6 C-13 5.34 -13 4.68 -13 4 C-11.865625 3.87625 -10.73125 3.7525 -9.5625 3.625 C-8.386875 3.41875 -7.21125 3.2125 -6 3 C-5.67 2.34 -5.34 1.68 -5 1 C-4.01 1 -3.02 1 -2 1 C-2 1.66 -2 2.32 -2 3 C-1.34 3 -0.68 3 0 3 C0 2.01 0 1.02 0 0 Z " fill="#414141" transform="translate(543,456)"/>
<path d="M0 0 C1.98 0 3.96 0 6 0 C6 7.26 6 14.52 6 22 C6.99 22 7.98 22 9 22 C9 23.65 9 25.3 9 27 C8.01 27 7.02 27 6 27 C6 29.31 6 31.62 6 34 C4.35 34 2.7 34 1 34 C1 31.69 1 29.38 1 27 C-1.97 27 -4.94 27 -8 27 C-8.51530196 20.04342354 -6.86072718 15.29166686 -4 9 C-3.6184375 8.12988281 -3.236875 7.25976562 -2.84375 6.36328125 C-1.90870876 4.23606243 -0.96075226 2.11569912 0 0 Z " fill="#F9F9F9" transform="translate(522,484)"/>
<path d="M0 0 C4.1914402 3.92947518 7.68747922 8.27447159 11.23046875 12.79296875 C12.96150108 15.03440759 12.96150108 15.03440759 15 17 C15.433125 18.134375 15.86625 19.26875 16.3125 20.4375 C18.14997508 24.31661405 19.15095592 25.31017577 23 27 C25.19130534 27.69579454 25.19130534 27.69579454 27 28 C27.33 29.65 27.66 31.3 28 33 C29.65 33 31.3 33 33 33 C33 34.65 33 36.3 33 38 C24.9201142 37.96494627 18.51075609 35.87160447 12 31 C10.5 28.25 10.5 28.25 10 25 C9.52295415 23.2436039 9.02114186 21.49382085 8.5 19.75 C8.2628125 18.89921875 8.025625 18.0484375 7.78125 17.171875 C7.11245302 14.82843466 7.11245302 14.82843466 5 13 C2.41645782 12.83312552 2.41645782 12.83312552 0 13 C0.33 10.03 0.66 7.06 1 4 C0.34 4 -0.32 4 -1 4 C-0.67 2.68 -0.34 1.36 0 0 Z " fill="#414141" transform="translate(496,389)"/>
<path d="M0 0 C4.62 0 9.24 0 14 0 C14 1.65 14 3.3 14 5 C11.03 5 8.06 5 5 5 C5 8.3 5 11.6 5 15 C7.31 15 9.62 15 12 15 C12 16.65 12 18.3 12 20 C9.69 20 7.38 20 5 20 C5 22.97 5 25.94 5 29 C7.97 29 10.94 29 14 29 C14 30.65 14 32.3 14 34 C9.38 34 4.76 34 0 34 C0 22.78 0 11.56 0 0 Z " fill="#FDFDFD" transform="translate(473,484)"/>
<path d="M0 0 C4.62 0 9.24 0 14 0 C14 1.65 14 3.3 14 5 C11.03 5 8.06 5 5 5 C5 8.3 5 11.6 5 15 C7.31 15 9.62 15 12 15 C12 16.65 12 18.3 12 20 C9.69 20 7.38 20 5 20 C5 22.97 5 25.94 5 29 C7.97 29 10.94 29 14 29 C14 30.65 14 32.3 14 34 C9.38 34 4.76 34 0 34 C0 22.78 0 11.56 0 0 Z " fill="#FDFDFD" transform="translate(428,484)"/>
<path d="M0 0 C0.99 0 1.98 0 3 0 C1.38957346 3.47686961 -0.62038568 6.54812404 -2.8125 9.6875 C-3.47894531 10.66074219 -4.14539063 11.63398438 -4.83203125 12.63671875 C-7 15 -7 15 -9.6015625 15.92578125 C-12.79566489 16.02462155 -14.32220448 14.64787417 -17 13 C-19.86369776 13.20454984 -20.86594052 13.86372923 -22.89453125 15.92578125 C-23.52746094 16.71339844 -24.16039062 17.50101562 -24.8125 18.3125 C-29.72511636 24.05451912 -34.61075455 27.02953455 -42 29 C-43.32 29 -44.64 29 -46 29 C-46 28.34 -46 27.68 -46 27 C-46.99 27 -47.98 27 -49 27 C-48.4 20.64 -48.4 20.64 -46.75 18 C-45 17 -45 17 -42.3125 17.3125 C-41.549375 17.539375 -40.78625 17.76625 -40 18 C-40 18.66 -40 19.32 -40 20 C-39.21625 19.649375 -38.4325 19.29875 -37.625 18.9375 C-36.325625 18.4734375 -36.325625 18.4734375 -35 18 C-34.34 18.33 -33.68 18.66 -33 19 C-33 18.34 -33 17.68 -33 17 C-31.68 17.33 -30.36 17.66 -29 18 C-28.34 16.35 -27.68 14.7 -27 13 C-25.68 13 -24.36 13 -23 13 C-22.360625 12.319375 -21.72125 11.63875 -21.0625 10.9375 C-20.0415625 9.9784375 -20.0415625 9.9784375 -19 9 C-16.25 9.25 -16.25 9.25 -14 10 C-14 10.66 -14 11.32 -14 12 C-7.76407331 10.09104285 -5.2314599 7.21524617 -1.578125 1.86328125 C-1.05734375 1.24839844 -0.5365625 0.63351562 0 0 Z " fill="#3F3F3F" transform="translate(467,435)"/>
<path d="M0 0 C3.09728249 1.34548616 4.85423023 2.73195968 6.9375 5.375 C8.73241876 7.56579056 10.24176766 9.18736994 12.5 10.9375 C18.08206093 15.54270027 22.76219012 22.53870684 26 29 C26 29.99 26 30.98 26 32 C24.35 32.66 22.7 33.32 21 34 C20.938125 33.05125 20.87625 32.1025 20.8125 31.125 C20.544375 30.09375 20.27625 29.0625 20 28 C17.67145537 26.80161791 17.67145537 26.80161791 15 26 C14.4225 25.278125 13.845 24.55625 13.25 23.8125 C11.18941138 21.77224583 11.18941138 21.77224583 8.75 21.96484375 C6.47508792 22.22432591 4.24622253 22.55843489 2 23 C2.12568359 21.98679687 2.12568359 21.98679687 2.25390625 20.953125 C2.35574219 20.06109375 2.45757813 19.1690625 2.5625 18.25 C2.66691406 17.36828125 2.77132812 16.4865625 2.87890625 15.578125 C3.07379383 11.42890563 1.87349431 8.62989524 0 5 C-0.33 4.01 -0.66 3.02 -1 2 C-0.67 1.34 -0.34 0.68 0 0 Z " fill="#3E3E3E" transform="translate(547,429)"/>
<path d="M0 0 C3.56155672 1.4303479 4.93089221 2.99479661 6.83984375 6.2890625 C7.34580078 7.14886719 7.85175781 8.00867188 8.37304688 8.89453125 C9.14745117 10.24611328 9.14745117 10.24611328 9.9375 11.625 C10.96679767 13.38840054 11.99673829 15.15142597 13.02734375 16.9140625 C13.52218262 17.7690332 14.01702148 18.62400391 14.52685547 19.50488281 C16.31225854 22.52888338 18.19691116 25.48104942 20.11938477 28.41943359 C21 30 21 30 21 32 C17.78539715 31.33795365 15.18997833 30.19453363 12.3125 28.625 C11.52488281 28.20476562 10.73726562 27.78453125 9.92578125 27.3515625 C8 26 8 26 7 23 C3.40422382 20.87522317 0.12838068 19.60711481 -4 19 C-2.54663734 14.88213914 -0.41342727 11.62014091 2 8 C2 7.34 2 6.68 2 6 C1.01 5.34 0.02 4.68 -1 4 C-0.67 2.68 -0.34 1.36 0 0 Z " fill="#404040" transform="translate(581,426)"/>
<path d="M0 0 C4.62 0 9.24 0 14 0 C14 1.65 14 3.3 14 5 C11.03 5 8.06 5 5 5 C5 8.3 5 11.6 5 15 C7.31 15 9.62 15 12 15 C12 16.65 12 18.3 12 20 C9.69 20 7.38 20 5 20 C5 24.62 5 29.24 5 34 C3.35 34 1.7 34 0 34 C0 22.78 0 11.56 0 0 Z " fill="#FCFCFC" transform="translate(335,484)"/>
<path d="M0 0 C5.28 0 10.56 0 16 0 C16 1.65 16 3.3 16 5 C14.02 5 12.04 5 10 5 C10 14.57 10 24.14 10 34 C8.35 34 6.7 34 5 34 C5 24.43 5 14.86 5 5 C3.35 5 1.7 5 0 5 C0 3.35 0 1.7 0 0 Z " fill="#FAFAFA" transform="translate(646,484)"/>
<path d="M0 0 C0.66 0.66 1.32 1.32 2 2 C3.32 2 4.64 2 6 2 C6.66 1.34 7.32 0.68 8 0 C8.125 6.625 8.125 6.625 7 10 C6.01 10 5.02 10 4 10 C3.67 11.32 3.34 12.64 3 14 C1.01432292 13.70703125 -0.97135417 13.4140625 -2.95703125 13.12109375 C-5.2025342 12.86095201 -5.2025342 12.86095201 -8 14 C-10.6875 13.0625 -10.6875 13.0625 -13 12 C-11.32598022 8.04322598 -8.86850715 5.15535787 -6 2 C-5.34 2 -4.68 2 -4 2 C-4 2.66 -4 3.32 -4 4 C-2.68 2.68 -1.36 1.36 0 0 Z " fill="#3E3E3E" transform="translate(401,453)"/>
<path d="M0 0 C1.65 0 3.3 0 5 0 C5 11.22 5 22.44 5 34 C3.35 34 1.7 34 0 34 C0 22.78 0 11.56 0 0 Z " fill="#FBFBFB" transform="translate(610,484)"/>
<path d="M0 0 C0.99 0 1.98 0 3 0 C4.68359375 2.23046875 4.68359375 2.23046875 6.4375 5.1875 C8.24524631 8.20849887 10.00151736 11.00186937 12.22265625 13.73828125 C14 16 14 16 14 18 C15.32 18 16.64 18 18 18 C17.67 19.32 17.34 20.64 17 22 C16.34 22 15.68 22 15 22 C15 21.34 15 20.68 15 20 C12.69 20.33 10.38 20.66 8 21 C7.60167969 20.37351562 7.20335937 19.74703125 6.79296875 19.1015625 C6.26316406 18.28429687 5.73335937 17.46703125 5.1875 16.625 C4.66542969 15.81289063 4.14335938 15.00078125 3.60546875 14.1640625 C2.01562803 11.76649759 2.01562803 11.76649759 -1 10 C-0.67 6.7 -0.34 3.4 0 0 Z " fill="#404040" transform="translate(540,400)"/>
<path d="M0 0 C2.5 -0.3125 2.5 -0.3125 5 0 C7 2 7 2 7.265625 4.96875 C7.26046875 6.1340625 7.2553125 7.299375 7.25 8.5 C7.25515625 9.6653125 7.2603125 10.830625 7.265625 12.03125 C7 15 7 15 5 17 C2.5 17.3125 2.5 17.3125 0 17 C-2.23465229 13.64802157 -2.27108649 12.42208754 -2.25 8.5 C-2.25515625 7.5409375 -2.2603125 6.581875 -2.265625 5.59375 C-2 3 -2 3 0 0 Z " fill="#E6E6E6" transform="translate(452,559)"/>
<path d="M0 0 C4.84508858 0.43492716 6.88259212 2.42509616 10.1875 5.875 C11.04730469 6.75929688 11.90710938 7.64359375 12.79296875 8.5546875 C17 13.2159292 17 13.2159292 17 17 C15.35 17.33 13.7 17.66 12 18 C11.34 17.01 10.68 16.02 10 15 C8.8553125 14.4121875 8.8553125 14.4121875 7.6875 13.8125 C3.98396465 11.31476686 1.8308832 8.05910701 0 4 C0 2.68 0 1.36 0 0 Z " fill="#404040" transform="translate(572,448)"/>
<path d="M0 0 C1.32 0 2.64 0 4 0 C5.69832609 5.83799592 6.25287193 10.93107371 6 17 C5.01 17 4.02 17 3 17 C3 15.68 3 14.36 3 13 C2.01 13 1.02 13 0 13 C0 14.32 0 15.64 0 17 C-0.66 17 -1.32 17 -2 17 C-2.25287193 10.93107371 -1.69832609 5.83799592 0 0 Z " fill="#E9E9E9" transform="translate(524,559)"/>
<path d="M0 0 C4.34321783 0.52289355 7.2699844 3.29682101 10.5625 5.9375 C15.18625468 9.59619111 15.18625468 9.59619111 20 13 C19.67 13.66 19.34 14.32 19 15 C11.74463007 15.3627685 11.74463007 15.3627685 8.5625 13.8125 C6.64338879 11.58633099 6.31237804 9.88949684 6 7 C3.03 6.505 3.03 6.505 0 6 C0 4.02 0 2.04 0 0 Z " fill="#393939" transform="translate(449,450)"/>
<path d="M0 0 C1.98 0 3.96 0 6 0 C6 0.66 6 1.32 6 2 C7.32 1.67 8.64 1.34 10 1 C10 1.66 10 2.32 10 3 C12.64 3.33 15.28 3.66 18 4 C17.625 5.9375 17.625 5.9375 17 8 C16.01 8.495 16.01 8.495 15 9 C15 8.01 15 7.02 15 6 C13.35 6.66 11.7 7.32 10 8 C10 7.34 10 6.68 10 6 C9.54625 6.495 9.0925 6.99 8.625 7.5 C7 9 7 9 5 9 C5 8.34 5 7.68 5 7 C4.1028125 7.2784375 4.1028125 7.2784375 3.1875 7.5625 C1 8 1 8 -2 7 C-1.34 4.69 -0.68 2.38 0 0 Z " fill="#424242" transform="translate(481,461)"/>
<path d="M0 0 C0 1.98 0 3.96 0 6 C0.66 6 1.32 6 2 6 C1.67 6.99 1.34 7.98 1 9 C-7 8 -7 8 -15 7 C-14 4 -14 4 -12.36328125 2.83203125 C-8.06030271 0.69283621 -4.92614603 -0.4926146 0 0 Z " fill="#404040" transform="translate(452,460)"/>
<path d="M0 0 C6.13200302 1.4523165 11.21909929 4.99386976 16 9 C16 9.66 16 10.32 16 11 C10.48648649 11.25061425 10.48648649 11.25061425 7.9375 9.9375 C5.3228923 8.67236724 3.73282949 9.2408807 1 10 C-0.1577506 6.52674819 -0.06866652 3.63932552 0 0 Z " fill="#474747" transform="translate(478,433)"/>
<path d="M0 0 C2.625 0.375 2.625 0.375 5 1 C5.33 2.65 5.66 4.3 6 6 C5.01 6 4.02 6 3 6 C3 5.01 3 4.02 3 3 C2.34 3 1.68 3 1 3 C1 6.63 1 10.26 1 14 C1.66 14 2.32 14 3 14 C3 13.01 3 12.02 3 11 C3.99 11 4.98 11 6 11 C5.67 12.65 5.34 14.3 5 16 C2.625 16.625 2.625 16.625 0 17 C-2 15 -2 15 -2.265625 12.03125 C-2.26046875 10.8659375 -2.2553125 9.700625 -2.25 8.5 C-2.25515625 7.3346875 -2.2603125 6.169375 -2.265625 4.96875 C-2 2 -2 2 0 0 Z " fill="#F7F7F7" transform="translate(501,559)"/>
<path d="M0 0 C4.74278594 4.20814462 7.55495361 8.99247173 10.625 14.5 C11.57532462 16.17719453 12.52583993 17.85428102 13.4765625 19.53125 C13.91387695 20.30855469 14.35119141 21.08585937 14.80175781 21.88671875 C16.1604699 24.28301293 17.56436243 26.64902303 19 29 C18.01 29.33 17.02 29.66 16 30 C15.58637207 29.31897217 15.17274414 28.63794434 14.74658203 27.9362793 C12.8733857 24.85294869 10.99920446 21.77021791 9.125 18.6875 C8.14853516 17.0797168 8.14853516 17.0797168 7.15234375 15.43945312 C6.52714844 14.41142578 5.90195312 13.38339844 5.2578125 12.32421875 C4.6817627 11.37635498 4.10571289 10.42849121 3.51220703 9.4519043 C2.3774152 7.61194396 1.19912872 5.79869309 0 4 C0 2.68 0 1.36 0 0 Z " fill="#DADADA" transform="translate(585,426)"/>
<path d="M0 0 C2.64 0 5.28 0 8 0 C8 0.99 8 1.98 8 3 C6.35 3 4.7 3 3 3 C3 4.32 3 5.64 3 7 C4.32 7 5.64 7 7 7 C7 7.99 7 8.98 7 10 C5.68 10 4.36 10 3 10 C3 12.31 3 14.62 3 17 C2.01 17 1.02 17 0 17 C0 11.39 0 5.78 0 0 Z " fill="#E5E5E5" transform="translate(477,559)"/>
<path d="M0 0 C2.64 0 5.28 0 8 0 C8 0.99 8 1.98 8 3 C6.35 3 4.7 3 3 3 C3 4.32 3 5.64 3 7 C4.32 7 5.64 7 7 7 C7 7.99 7 8.98 7 10 C5.68 10 4.36 10 3 10 C3 12.31 3 14.62 3 17 C2.01 17 1.02 17 0 17 C0 11.39 0 5.78 0 0 Z " fill="#E5E5E5" transform="translate(464,559)"/>
<path d="M0 0 C0.99 0 1.98 0 3 0 C3 4.62 3 9.24 3 14 C4.65 14 6.3 14 8 14 C8 14.99 8 15.98 8 17 C5.36 17 2.72 17 0 17 C0 11.39 0 5.78 0 0 Z " fill="#E1E1E1" transform="translate(536,559)"/>
<path d="M0 0 C-0.4763075 4.28676746 -2.98085758 6.11809132 -6 9 C-7.7140168 10.96484852 -9.35363611 12.97732437 -11 15 C-12.65 14.67 -14.3 14.34 -16 14 C-16 13.01 -16 12.02 -16 11 C-14.68 11 -13.36 11 -12 11 C-12 10.34 -12 9.68 -12 9 C-11.01 9 -10.02 9 -9 9 C-8.814375 8.0409375 -8.814375 8.0409375 -8.625 7.0625 C-8.41875 6.381875 -8.2125 5.70125 -8 5 C-7.34 4.67 -6.68 4.34 -6 4 C-5.67 3.01 -5.34 2.02 -5 1 C-2 0 -2 0 0 0 Z " fill="#484848" transform="translate(547,423)"/>
<path d="M0 0 C3 0 3 0 5.1875 1.875 C9.08027546 5.99465501 12.51027227 10.54042238 16 15 C15.01 16.485 15.01 16.485 14 18 C13.07767578 16.86111328 13.07767578 16.86111328 12.13671875 15.69921875 C11.32847656 14.70535156 10.52023437 13.71148437 9.6875 12.6875 C8.88699219 11.70136719 8.08648437 10.71523438 7.26171875 9.69921875 C5.57311644 7.68397834 3.90369301 5.80511991 2 4 C1.01 5.485 1.01 5.485 0 7 C-0.33 6.34 -0.66 5.68 -1 5 C-1.99 5.495 -1.99 5.495 -3 6 C-1.125 1.125 -1.125 1.125 0 0 Z " fill="#DDDDDD" transform="translate(494,386)"/>
<path d="M0 0 C1.65 0 3.3 0 5 0 C6 1 6 1 6.09765625 3.06640625 C6.08605469 3.89011719 6.07445312 4.71382813 6.0625 5.5625 C6.05347656 6.38878906 6.04445313 7.21507812 6.03515625 8.06640625 C6.01775391 9.02353516 6.01775391 9.02353516 6 10 C4.02 10.33 2.04 10.66 0 11 C0 7.37 0 3.74 0 0 Z " fill="#393939" transform="translate(385,489)"/>
<path d="M0 0 C0.495 0.268125 0.99 0.53625 1.5 0.8125 C3.70157356 1.85824744 5.81880935 2.60766747 8.125 3.375 C11.79879859 4.70658127 11.79879859 4.70658127 13.5 7.1875 C13.665 7.785625 13.83 8.38375 14 9 C11.03 8.505 11.03 8.505 8 8 C8 8.66 8 9.32 8 10 C3.79236776 8.4972742 2.1972242 5.76667005 0 2 C0 1.34 0 0.68 0 0 Z " fill="#414141" transform="translate(589,456)"/>
<path d="M0 0 C0.66 0 1.32 0 2 0 C2 0.66 2 1.32 2 2 C4.31 2 6.62 2 9 2 C8.1875 4.4375 8.1875 4.4375 7 7 C2.74938644 8.41687119 0.28148375 7.19320039 -4 6 C-4 5.01 -4 4.02 -4 3 C-3.01 2.67 -2.02 2.34 -1 2 C-0.67 1.34 -0.34 0.68 0 0 Z " fill="#494949" transform="translate(517,435)"/>
<path d="M0 0 C3.61477175 1.49801352 5.68620463 3.57537417 8.25 6.5 C8.95640625 7.2940625 9.6628125 8.088125 10.390625 8.90625 C12 11 12 11 12 13 C8.53846154 16 8.53846154 16 6 16 C5.90203125 15.31292969 5.8040625 14.62585938 5.703125 13.91796875 C5.55359375 13.01691406 5.4040625 12.11585938 5.25 11.1875 C5.11078125 10.29417969 4.9715625 9.40085937 4.828125 8.48046875 C3.82172696 5.46602178 2.53165669 4.79582965 0 3 C0 2.01 0 1.02 0 0 Z " fill="#4D4D4D" transform="translate(430,427)"/>
<path d="M0 0 C3.16168368 1.43130275 5.62274483 3.17514138 8.25 5.4375 C8.95640625 6.03433594 9.6628125 6.63117188 10.390625 7.24609375 C12 9 12 9 12 12 C7.58510474 11.49544054 5.10530159 10.18922866 2 7 C0.6875 3.25 0.6875 3.25 0 0 Z " fill="#434343" transform="translate(483,406)"/>
<path d="M0 0 C2.625 0.375 2.625 0.375 5 1 C5.33 2.65 5.66 4.3 6 6 C5.34 6 4.68 6 4 6 C4 6.66 4 7.32 4 8 C2.35 7.67 0.7 7.34 -1 7 C-1.625 4.625 -1.625 4.625 -2 2 C-1.34 1.34 -0.68 0.68 0 0 Z " fill="#EAEAEA" transform="translate(433,564)"/>
<path d="M0 0 C0.99 0 1.98 0 3 0 C3 5.61 3 11.22 3 17 C2.01 17 1.02 17 0 17 C0 11.39 0 5.78 0 0 Z " fill="#E2E2E2" transform="translate(490,559)"/>
<path d="M0 0 C0.99 0 1.98 0 3 0 C3 5.61 3 11.22 3 17 C2.01 17 1.02 17 0 17 C0 11.39 0 5.78 0 0 Z " fill="#DCDCDC" transform="translate(513,559)"/>
<path d="M0 0 C2.82169601 3.38849957 5.14560862 6.8256147 7.375 10.625 C10.1479867 15.0749549 11.99645999 17.4135117 17 19 C17 19.33 17 19.66 17 20 C14.3671875 20.484375 14.3671875 20.484375 11 20 C8.58205164 17.72592189 6.90065752 15.03894034 5.125 12.25 C4.37863281 11.15558594 4.37863281 11.15558594 3.6171875 10.0390625 C0 4.57353194 0 4.57353194 0 0 Z " fill="#CCCCCC" transform="translate(543,398)"/>
<path d="M0 0 C1.32 0 2.64 0 4 0 C4.33 2.31 4.66 4.62 5 7 C4.34 7 3.68 7 3 7 C3 7.99 3 8.98 3 10 C2.34 10 1.68 10 1 10 C-1 8 -1 8 -1.1875 5 C-1 2 -1 2 0 0 Z " fill="#D4D4D4" transform="translate(524,559)"/>
<path d="M0 0 C2.125 0.375 2.125 0.375 4 1 C4.625 3.375 4.625 3.375 5 6 C4.34 6.66 3.68 7.32 3 8 C0.875 7.625 0.875 7.625 -1 7 C-1.625 4.625 -1.625 4.625 -2 2 C-1.34 1.34 -0.68 0.68 0 0 Z " fill="#F3F3F3" transform="translate(557,564)"/>
<path d="M0 0 C3.05156911 0.33906323 4.33482151 1.26041673 6.8125 3.1875 C9 6 9 6 8.8125 9.3125 C8.544375 10.199375 8.27625 11.08625 8 12 C7.67 12 7.34 12 7 12 C6.67 10.35 6.34 8.7 6 7 C3.03 6.505 3.03 6.505 0 6 C0 4.02 0 2.04 0 0 Z " fill="#585858" transform="translate(449,450)"/>
<path d="M0 0 C2.4375 0.6875 2.4375 0.6875 5 2 C5.8125 4.625 5.8125 4.625 6 7 C3.69 7.66 1.38 8.32 -1 9 C-0.67 6.03 -0.34 3.06 0 0 Z " fill="#5C5C5C" transform="translate(411,437)"/>
<path d="M0 0 C1.65 0 3.3 0 5 0 C5 0.66 5 1.32 5 2 C5.99 2 6.98 2 8 2 C8 4.31 8 6.62 8 9 C7.01 8.67 6.02 8.34 5 8 C5 7.34 5 6.68 5 6 C4.01 5.67 3.02 5.34 2 5 C0.8125 2.4375 0.8125 2.4375 0 0 Z " fill="#494949" transform="translate(563,437)"/>
<path d="M0 0 C2.90459025 0.40341531 4.69885 0.77185606 7.0625 2.5625 C9.13330995 4.39723128 9.13330995 4.39723128 13 4 C13 4.66 13 5.32 13 6 C8.60309316 7.02253647 6.01127186 7.16825506 2 5 C0.1875 3.375 0.1875 3.375 -1 2 C-0.67 1.34 -0.34 0.68 0 0 Z " fill="#DFDFDF" transform="translate(590,453)"/>
<path d="M0 0 C1.67542976 0.28604898 3.34385343 0.61781233 5 1 C5.33 2.65 5.66 4.3 6 6 C5.01 6 4.02 6 3 6 C3 5.01 3 4.02 3 3 C2.34 3 1.68 3 1 3 C1 6.3 1 9.6 1 13 C0.67 13 0.34 13 0 13 C-0.16873478 11.56274129 -0.33490737 10.12518162 -0.5 8.6875 C-0.5928125 7.88699219 -0.685625 7.08648438 -0.78125 6.26171875 C-1 4 -1 4 -1 1 C-0.67 0.67 -0.34 0.34 0 0 Z " fill="#DDDDDD" transform="translate(501,559)"/>
<path d="M0 0 C2.4375 0.375 2.4375 0.375 5 1 C5.33 1.66 5.66 2.32 6 3 C6.99 3.33 7.98 3.66 9 4 C9 4.66 9 5.32 9 6 C9.66 6 10.32 6 11 6 C11 6.66 11 7.32 11 8 C6.4926374 7.46972205 3.5460927 5.80388725 0 3 C0 2.01 0 1.02 0 0 Z " fill="#515151" transform="translate(478,427)"/>
<path d="M0 0 C0.66 0.99 1.32 1.98 2 3 C-3.94 8.445 -3.94 8.445 -10 14 C-10.66 13.67 -11.32 13.34 -12 13 C-11.30132812 12.31292969 -10.60265625 11.62585938 -9.8828125 10.91796875 C-8.97273438 10.01691406 -8.06265625 9.11585938 -7.125 8.1875 C-6.22007812 7.29417969 -5.31515625 6.40085937 -4.3828125 5.48046875 C-1.90168486 3.04361667 -1.90168486 3.04361667 0 0 Z " fill="#D5D5D5" transform="translate(391,456)"/>
<path d="M0 0 C3.36525621 0.46417327 5.40608501 1.86928411 8 4 C7.34 4 6.68 4 6 4 C6 4.99 6 5.98 6 7 C1.32307692 5.52307692 1.32307692 5.52307692 -0.3125 2.875 C-0.539375 2.25625 -0.76625 1.6375 -1 1 C-0.67 0.67 -0.34 0.34 0 0 Z " fill="#919191" transform="translate(448,432)"/>
<path d="M0 0 C0.99 0.33 1.98 0.66 3 1 C3 3.97 3 6.94 3 10 C2.01 10.33 1.02 10.66 0 11 C0 7.37 0 3.74 0 0 Z " fill="#434343" transform="translate(453,562)"/>
<path d="M0 0 C3.81684226 1.55500981 6.19195732 4.03595495 9 7 C7.68 7.33 6.36 7.66 5 8 C3.02 5.69 1.04 3.38 -1 1 C-0.67 0.67 -0.34 0.34 0 0 Z " fill="#D5D5D5" transform="translate(436,430)"/>
<path d="M0 0 C0.33 0 0.66 0 1 0 C1 3.3 1 6.6 1 10 C-0.32 10 -1.64 10 -3 10 C-2.49287967 6.28111761 -1.88391785 3.26545761 0 0 Z " fill="#616161" transform="translate(522,496)"/>
<path d="M0 0 C-1.52708963 3.43595166 -3.59927045 6.11912454 -6 9 C-6 8.34 -6 7.68 -6 7 C-6.66 6.67 -7.32 6.34 -8 6 C-3.375 0 -3.375 0 0 0 Z " fill="#4F4F4F" transform="translate(470,435)"/>
<path d="M0 0 C0 0.66 0 1.32 0 2 C0.66 2.33 1.32 2.66 2 3 C-1.33008975 4.11002992 -2.65983176 3.68516272 -6 3 C-6.99 3.495 -6.99 3.495 -8 4 C-7.625 2.0625 -7.625 2.0625 -7 0 C-4.3333581 -1.33332095 -2.83319697 -0.67102033 0 0 Z " fill="#4A4A4A" transform="translate(453,445)"/>
<path d="M0 0 C-1.32 0.99 -2.64 1.98 -4 3 C-3.01 3.99 -2.02 4.98 -1 6 C-3.64 5.67 -6.28 5.34 -9 5 C-8 2 -8 2 -5.625 0.25 C-3 -1 -3 -1 0 0 Z " fill="#5B5B5B" transform="translate(446,462)"/>
<path d="M0 0 C0.598125 0.350625 1.19625 0.70125 1.8125 1.0625 C-0.80691217 2.80877478 -2.22574877 3.44972388 -5.1875 4.0625 C-5.1875 2.7425 -5.1875 1.4225 -5.1875 0.0625 C-2.1875 -0.9375 -2.1875 -0.9375 0 0 Z " fill="#5D5D5D" transform="translate(522.1875,464.9375)"/>
<path d="M0 0 C0 3 0 3 -1.3125 4.60546875 C-1.869375 5.12753906 -2.42625 5.64960938 -3 6.1875 C-3.556875 6.71730469 -4.11375 7.24710937 -4.6875 7.79296875 C-5.120625 8.19128906 -5.55375 8.58960938 -6 9 C-6.66 8.67 -7.32 8.34 -8 8 C-7.04578192 6.85073734 -6.08647955 5.70569459 -5.125 4.5625 C-4.59132813 3.92441406 -4.05765625 3.28632813 -3.5078125 2.62890625 C-2 1 -2 1 0 0 Z " fill="#DADADA" transform="translate(546,426)"/>
<path d="M0 0 C3.96 1.98 3.96 1.98 8 4 C8 4.33 8 4.66 8 5 C6.02 5 4.04 5 2 5 C1.34 3.35 0.68 1.7 0 0 Z " fill="#DFDFDF" transform="translate(552,413)"/>
<path d="M0 0 C1.9375 0.8125 1.9375 0.8125 4 2 C4.33 2.99 4.66 3.98 5 5 C3.35 4.67 1.7 4.34 0 4 C0 2.68 0 1.36 0 0 Z " fill="#595959" transform="translate(529,438)"/>
<path d="M0 0 C2.97 0.99 5.94 1.98 9 3 C7.02 3.99 7.02 3.99 5 5 C2.25 3.75 2.25 3.75 0 2 C0 1.34 0 0.68 0 0 Z " fill="#D6D6D6" transform="translate(480,432)"/>
<path d="M0 0 C0.99 0.33 1.98 0.66 3 1 C2.34 2.98 1.68 4.96 1 7 C0.34 6.34 -0.32 5.68 -1 5 C-1.99 5.495 -1.99 5.495 -3 6 C-1.125 1.125 -1.125 1.125 0 0 Z " fill="#D1D1D1" transform="translate(494,386)"/>
</svg>
