<?xml version="1.0" standalone="no"?>
<!DOCTYPE svg PUBLIC "-//W3C//DTD SVG 20010904//EN"
 "http://www.w3.org/TR/2001/REC-SVG-20010904/DTD/svg10.dtd">
<svg version="1.0" xmlns="http://www.w3.org/2000/svg"
 width="1000.000000pt" height="1000.000000pt" viewBox="0 0 1000.000000 1000.000000"
 preserveAspectRatio="xMidYMid meet">

<g transform="translate(0.000000,1000.000000) scale(0.100000,-0.100000)"
fill="#000000" stroke="none">
<path d="M4965 7201 c-28 -15 -295 -164 -595 -331 -300 -167 -599 -334 -665
-370 -66 -37 -195 -108 -287 -159 l-168 -93 0 -484 0 -484 264 0 c247 0 266 1
278 19 7 10 45 54 84 97 39 43 106 121 148 172 43 50 82 92 87 92 5 0 21 -8
35 -17 16 -10 28 -13 32 -7 4 6 28 42 54 82 26 40 52 72 56 72 10 0 81 -74
119 -122 25 -34 39 -35 63 -5 16 19 21 20 37 9 10 -6 24 -15 31 -18 27 -13
124 106 217 269 36 62 42 67 67 62 25 -6 30 -1 74 75 31 54 52 80 62 78 9 -2
40 -32 70 -68 105 -125 102 -122 118 -109 15 12 23 8 77 -40 l28 -26 20 25
c10 14 38 53 62 87 23 34 47 63 54 63 7 0 42 -45 78 -100 43 -65 80 -109 104
-124 21 -14 53 -43 70 -65 41 -52 66 -53 171 -7 19 8 61 -47 150 -194 86 -143
113 -178 162 -213 24 -17 60 -43 80 -59 l37 -28 271 0 270 0 -2 481 -3 481
-85 47 c-47 26 -184 103 -305 171 -121 68 -290 162 -375 210 -85 48 -231 130
-325 182 -93 53 -264 148 -380 213 -115 64 -228 128 -250 141 l-40 23 -50 -28z"/>
<path d="M4956 6094 c-4 -10 -1 -21 5 -25 8 -4 10 -22 6 -48 -4 -37 -3 -40 13
-31 13 7 22 4 39 -14 11 -12 21 -27 21 -33 0 -6 7 -24 15 -40 8 -15 17 -44 20
-63 4 -31 12 -39 68 -67 34 -17 80 -33 102 -35 34 -3 40 0 40 17 0 13 -8 21
-21 23 -12 2 -26 13 -32 26 -6 13 -26 27 -51 34 -41 13 -71 43 -71 72 0 12
-77 117 -145 198 -1 2 -5 -5 -9 -14z"/>
<path d="M5406 5987 c3 -8 0 -26 -6 -42 -10 -25 -7 -32 19 -59 16 -17 36 -45
44 -61 14 -28 19 -30 63 -30 27 1 49 6 52 13 2 7 -5 12 -17 12 -15 0 -38 25
-81 90 -33 50 -65 90 -70 90 -5 0 -7 -6 -4 -13z"/>
<path d="M4835 5923 c4 -10 9 -25 12 -33 4 -14 81 -70 97 -70 19 0 -1 31 -48
73 -58 50 -72 57 -61 30z"/>
<path d="M5170 5925 c0 -8 7 -15 16 -15 14 0 14 3 4 15 -7 8 -14 15 -16 15 -2
0 -4 -7 -4 -15z"/>
<path d="M5417 5735 c-21 -20 -37 -40 -37 -45 0 -6 -7 -10 -15 -10 -8 0 -15
-4 -15 -10 0 -5 -9 -10 -20 -10 -24 0 -27 -28 -4 -37 12 -4 36 14 80 61 60 62
75 86 56 86 -5 0 -25 -16 -45 -35z"/>
<path d="M5806 5725 c-3 -9 3 -20 14 -27 27 -17 26 -25 -15 -86 -30 -44 -33
-52 -17 -52 27 0 112 -57 112 -75 0 -8 6 -15 13 -15 8 0 34 -13 58 -30 24 -16
45 -26 47 -21 5 14 -186 321 -199 321 -4 0 -9 -7 -13 -15z"/>
<path d="M4300 5723 c0 -4 10 -17 22 -30 26 -28 49 -89 41 -110 -6 -14 11 -7
56 23 2 2 -21 30 -50 63 -49 56 -69 72 -69 54z"/>
<path d="M5042 5690 c-31 -28 -43 -46 -41 -62 2 -13 -7 -40 -20 -61 -17 -28
-29 -37 -49 -37 -30 0 -92 -34 -92 -50 0 -6 13 -13 30 -16 16 -4 48 -22 70
-42 l41 -35 82 12 c45 6 107 11 138 11 43 0 60 5 74 20 21 24 23 22 -36 48
-26 11 -57 34 -70 52 -13 18 -43 41 -66 51 -49 21 -52 32 -19 72 21 26 26 77
7 77 -3 0 -25 -18 -49 -40z"/>
<path d="M4790 5701 c10 -20 87 -57 96 -48 9 9 -19 34 -33 30 -6 -2 -14 5 -17
15 -4 12 -16 20 -31 20 -20 0 -23 -4 -15 -17z"/>
<path d="M5470 5681 c0 -10 7 -22 16 -25 11 -4 15 -14 11 -33 -3 -15 1 -37 10
-49 13 -20 12 -26 -2 -54 -9 -18 -15 -34 -13 -36 3 -2 19 2 36 8 26 10 36 10
50 0 9 -7 31 -21 48 -32 16 -11 38 -36 47 -55 15 -31 20 -34 37 -25 11 6 20
13 20 16 0 3 -17 34 -37 67 -34 57 -198 237 -215 237 -5 0 -8 -9 -8 -19z"/>
<path d="M4785 5628 c10 -57 12 -59 39 -46 19 8 29 7 47 -6 40 -28 91 -17 57
12 -16 12 -138 82 -145 82 -3 0 -2 -19 2 -42z"/>
<path d="M4490 5651 c0 -11 40 -41 54 -41 5 0 -1 11 -14 25 -24 26 -40 32 -40
16z"/>
<path d="M4651 5617 c-11 -18 -31 -43 -45 -56 -27 -26 -76 -37 -76 -19 0 6 -3
8 -6 5 -4 -3 -15 -2 -24 3 -14 7 -24 3 -43 -15 -13 -14 -31 -23 -39 -20 -9 4
-20 -4 -28 -20 -9 -18 -19 -24 -32 -19 -10 3 -18 0 -18 -6 0 -7 -7 -9 -16 -6
-9 4 -23 1 -32 -6 -12 -10 -16 -10 -19 -1 -2 7 -11 9 -19 6 -8 -3 -14 0 -14 6
0 22 -21 11 -40 -21 -26 -43 -26 -68 1 -68 11 0 18 -4 14 -10 -8 -13 42 -5 90
15 22 9 70 47 108 83 l67 67 43 -23 c23 -12 48 -22 55 -22 11 0 90 99 113 142
18 33 -18 20 -40 -15z"/>
<path d="M5153 5625 c-28 -27 -29 -37 -5 -33 9 1 23 -1 30 -5 6 -5 12 -5 12
-1 0 3 6 1 14 -5 12 -10 19 -8 35 8 30 30 26 41 -14 41 -19 0 -35 5 -35 10 0
15 -13 10 -37 -15z"/>
<path d="M4120 5616 c0 -7 -3 -27 -6 -45 l-6 -31 31 16 c38 19 39 36 6 58 -20
13 -25 14 -25 2z"/>
<path d="M5630 5621 c0 -11 61 -71 72 -71 15 0 8 47 -10 63 -20 18 -62 23 -62
8z"/>
<path d="M5290 5608 c0 -23 17 -40 35 -36 15 3 15 5 -3 26 -22 25 -32 28 -32
10z"/>
<path d="M5724 5506 c-12 -30 55 -126 87 -126 10 0 21 -9 24 -20 5 -16 12 -19
28 -14 12 3 23 8 25 9 9 8 -51 86 -93 123 -52 45 -63 50 -71 28z"/>
<path d="M4497 5478 c-7 -23 6 -38 34 -38 20 0 43 -25 35 -38 -12 -19 36 -47
80 -47 24 0 43 2 42 6 -3 7 -118 96 -159 123 -26 16 -27 16 -32 -6z"/>
<path d="M4073 5450 c-9 -19 -12 -21 -12 -7 -1 20 -17 23 -24 5 -4 -10 -8 -9
-16 2 -10 13 -13 13 -22 -3 -8 -13 -14 -15 -23 -8 -9 8 -24 -2 -56 -34 -46
-47 -47 -57 -5 -57 14 0 25 -5 25 -10 0 -5 6 -6 13 -1 17 11 67 12 67 2 0 -17
19 -9 25 11 3 11 13 20 20 20 15 0 29 55 23 86 -3 15 -5 14 -15 -6z"/>
<path d="M5430 5425 c0 -18 -16 -20 -24 -2 -3 9 -9 7 -19 -5 -8 -10 -17 -15
-20 -11 -4 3 -13 1 -20 -5 -8 -7 -17 -9 -20 -5 -4 3 -14 0 -23 -8 -9 -8 -22
-14 -28 -14 -23 -1 -116 -37 -116 -45 0 -18 20 -20 43 -5 21 14 26 14 37 1 10
-14 15 -13 36 1 18 11 28 13 37 4 10 -8 17 -7 25 1 8 8 15 8 25 0 10 -9 17 -8
26 1 9 9 14 9 22 -3 8 -13 11 -13 20 3 9 15 13 16 26 6 12 -11 17 -10 25 5 8
14 13 15 24 5 8 -6 17 -9 21 -5 3 3 15 -1 25 -11 17 -15 18 -15 18 0 0 21 16
22 24 2 7 -20 26 -19 26 1 0 14 3 14 15 4 12 -10 15 -9 15 4 0 26 -30 77 -41
70 -5 -3 -17 0 -25 7 -12 10 -17 10 -23 0 -6 -9 -11 -8 -21 4 -15 18 -31 20
-27 3 1 -7 -6 -12 -15 -10 -10 2 -18 -2 -18 -8 0 -18 -18 -11 -25 10 -7 23
-25 27 -25 5z"/>
<path d="M5890 5434 c0 -11 23 -50 43 -71 23 -26 42 -30 34 -9 -5 11 0 12 23
3 16 -6 33 -8 37 -3 11 11 -35 46 -69 53 -15 3 -33 12 -39 19 -11 14 -29 19
-29 8z"/>
<path d="M4440 5385 c-14 -8 -33 -18 -42 -21 -10 -3 -18 -13 -18 -21 0 -11 7
-13 25 -9 14 4 25 2 25 -3 0 -11 39 -9 57 2 7 4 15 1 20 -7 6 -11 12 -12 23
-5 11 8 12 12 3 16 -7 2 -13 18 -13 34 0 31 -9 36 -28 17 -9 -9 -12 -9 -12 0
0 16 -9 15 -40 -3z"/>
<path d="M4814 5379 c-2 -3 -7 -17 -13 -30 -8 -22 -6 -24 23 -24 17 1 34 -4
38 -9 4 -6 13 -4 23 4 14 12 18 12 25 -1 7 -11 12 -11 22 -1 17 17 28 15 28
-4 0 -14 3 -14 15 -4 26 21 17 38 -25 45 -22 4 -40 11 -40 17 0 5 -9 6 -20 3
-11 -3 -20 -2 -20 3 0 11 -49 11 -56 1z"/>
<path d="M2800 4975 l0 -255 2165 0 2165 0 0 255 0 255 -2165 0 -2165 0 0
-255z m690 160 c0 -23 -4 -25 -45 -25 l-45 0 0 -50 0 -50 35 0 c31 0 35 -3 35
-25 0 -22 -4 -25 -35 -25 l-35 0 0 -70 c0 -68 -1 -70 -25 -70 l-25 0 0 170 0
170 70 0 c68 0 70 -1 70 -25z m447 3 c19 -17 23 -32 23 -78 0 -32 -6 -64 -14
-75 -12 -16 -11 -28 5 -84 24 -83 24 -81 -10 -81 -23 0 -30 5 -35 28 -21 85
-28 102 -41 102 -12 0 -15 -15 -15 -65 0 -63 -1 -65 -25 -65 l-25 0 0 170 0
170 57 0 c44 0 62 -5 80 -22z m483 -3 c0 -23 -4 -25 -45 -25 l-45 0 0 -50 0
-50 35 0 c31 0 35 -3 35 -25 0 -22 -4 -25 -35 -25 -35 0 -35 0 -35 -45 l0 -45
45 0 c41 0 45 -2 45 -25 0 -24 -2 -25 -70 -25 l-70 0 0 170 0 170 70 0 c68 0
70 -1 70 -25z m450 0 c0 -23 -4 -25 -45 -25 l-45 0 0 -50 0 -50 35 0 c31 0 35
-3 35 -25 0 -22 -4 -25 -35 -25 -35 0 -35 0 -35 -45 l0 -45 45 0 c41 0 45 -2
45 -25 0 -24 -2 -25 -70 -25 l-70 0 0 170 0 170 70 0 c68 0 70 -1 70 -25z
m410 -85 c0 -91 3 -110 15 -110 9 0 15 -9 15 -25 0 -16 -6 -25 -15 -25 -10 0
-15 -11 -15 -35 0 -31 -3 -35 -25 -35 -22 0 -25 4 -25 35 0 35 0 35 -45 35
-44 0 -45 1 -45 32 0 18 19 79 43 135 39 95 44 103 70 103 l27 0 0 -110z m402
-32 c3 -135 4 -143 23 -143 19 0 20 8 23 143 l3 142 29 0 30 0 0 -145 c0 -142
-1 -147 -25 -170 -31 -32 -80 -33 -112 -3 -22 21 -23 28 -23 170 l0 148 25 0
24 0 3 -142z m468 -28 l0 -170 -25 0 -25 0 0 170 0 170 25 0 25 0 0 -170z
m470 145 c0 -21 -5 -25 -30 -25 l-30 0 0 -145 0 -145 -25 0 -25 0 0 145 0 145
-25 0 c-20 0 -25 5 -25 25 0 25 1 25 80 25 79 0 80 0 80 -25z"/>
<path d="M3850 5055 c0 -46 3 -55 18 -55 27 0 42 20 42 55 0 35 -15 55 -42 55
-15 0 -18 -9 -18 -55z"/>
<path d="M5209 4995 c-15 -35 -15 -41 -2 -48 21 -12 25 -5 21 44 l-3 44 -16
-40z"/>
<path d="M2901 4656 c2 -2 155 -68 339 -146 184 -78 443 -189 575 -245 267
-115 1007 -429 1100 -468 53 -22 63 -24 90 -12 100 42 1566 667 1785 761 l265
113 -2079 1 c-1144 0 -2077 -2 -2075 -4z m1677 -258 c16 -16 16 -130 0 -146
-18 -18 -56 -14 -68 7 -5 11 -10 41 -10 66 0 25 5 55 10 66 12 21 50 25 68 7z
m142 -3 c0 -9 -9 -15 -25 -15 -18 0 -25 -5 -25 -20 0 -13 7 -20 20 -20 11 0
20 -7 20 -15 0 -8 -9 -15 -20 -15 -16 0 -20 -7 -20 -35 0 -24 -5 -35 -15 -35
-12 0 -15 16 -15 85 l0 85 40 0 c29 0 40 -4 40 -15z m130 0 c0 -9 -9 -15 -25
-15 -18 0 -25 -5 -25 -20 0 -13 7 -20 20 -20 11 0 20 -7 20 -15 0 -8 -9 -15
-20 -15 -16 0 -20 -7 -20 -35 0 -24 -5 -35 -15 -35 -12 0 -15 16 -15 85 l0 85
40 0 c29 0 40 -4 40 -15z m80 -70 c0 -69 -3 -85 -15 -85 -12 0 -15 16 -15 85
0 69 3 85 15 85 12 0 15 -16 15 -85z m128 73 c17 -17 15 -48 -3 -48 -8 0 -15
7 -15 15 0 8 -4 15 -10 15 -5 0 -10 -25 -10 -55 0 -30 5 -55 10 -55 6 0 10 7
10 15 0 8 7 15 16 15 21 0 15 -39 -8 -54 -13 -8 -23 -8 -35 0 -22 14 -31 127
-12 150 14 17 41 18 57 2z m102 -73 c0 -69 -3 -85 -15 -85 -12 0 -15 16 -15
85 0 69 3 85 15 85 12 0 15 -16 15 -85z m124 58 c3 -16 8 -46 12 -68 3 -22 8
-48 11 -57 3 -12 -1 -18 -12 -18 -9 0 -19 9 -22 20 -3 11 -9 20 -13 20 -5 0
-12 -9 -15 -20 -8 -25 -38 -27 -32 -2 3 9 8 35 11 57 14 85 17 95 36 95 12 0
20 -9 24 -27z m106 -43 c0 -68 1 -70 25 -70 16 0 25 -6 25 -15 0 -11 -11 -15
-40 -15 l-40 0 0 85 c0 69 3 85 15 85 12 0 15 -14 15 -70z m-1010 5 c26 -32
-13 -81 -47 -59 -35 22 -23 74 17 74 10 0 23 -7 30 -15z m1235 -5 c9 -29 -3
-60 -24 -60 -21 0 -41 19 -41 40 0 39 54 55 65 20z"/>
<path d="M4535 4368 c-9 -24 -2 -93 10 -93 14 0 19 85 6 98 -7 7 -12 5 -16 -5z"/>
</g>
</svg>
